<svg xmlns="http://www.w3.org/2000/svg" width="118" height="58" viewBox="0 0 118 58" fill="none">
    <path d="M1.44 14C1.44 12.296 1.776 10.736 2.448 9.32C3.144 7.904 4.224 6.776 5.688 5.936C7.176 5.072 9.06 4.64 11.34 4.64C13.308 4.64 14.964 4.988 16.308 5.684C17.652 6.356 18.648 7.292 19.296 8.492C19.944 9.668 20.232 11.024 20.16 12.56L15.192 11.84C15.216 11.6 15.228 11.276 15.228 10.868C15.228 9.452 14.88 8.372 14.184 7.628C13.512 6.884 12.552 6.512 11.304 6.512C9.552 6.512 8.292 7.148 7.524 8.42C6.78 9.692 6.408 11.552 6.408 14C6.408 16.448 6.78 18.308 7.524 19.58C8.292 20.852 9.552 21.488 11.304 21.488C12.624 21.488 13.668 21.092 14.436 20.3C15.204 19.484 15.588 18.296 15.588 16.736C15.588 16.328 15.576 16.016 15.552 15.8L20.52 15.08C20.592 16.712 20.268 18.152 19.548 19.4C18.852 20.648 17.796 21.62 16.38 22.316C14.964 23.012 13.272 23.36 11.304 23.36C9.024 23.36 7.14 22.94 5.652 22.1C4.188 21.236 3.12 20.108 2.448 18.716C1.776 17.3 1.44 15.728 1.44 14ZM39.9285 18.536C39.9285 19.856 40.2285 20.516 40.8285 20.516C41.0685 20.516 41.3685 20.408 41.7285 20.192V21.56C41.4405 22.016 40.9845 22.376 40.3605 22.64C39.7605 22.88 39.1005 23 38.3805 23C37.5165 23 36.7485 22.832 36.0765 22.496C35.4285 22.136 35.0565 21.5 34.9605 20.588V20.336H34.6005C34.0245 21.224 33.1725 21.956 32.0445 22.532C30.9165 23.084 29.5845 23.36 28.0485 23.36C24.1845 23.36 22.2525 21.86 22.2525 18.86C22.2525 16.556 23.4645 14.912 25.8885 13.928C28.3125 12.944 31.3245 12.248 34.9245 11.84C34.8765 10.52 34.7445 9.488 34.5285 8.744C34.3125 8 33.9405 7.448 33.4125 7.088C32.8845 6.704 32.1525 6.512 31.2165 6.512C30.1125 6.512 29.2605 6.74 28.6605 7.196C28.0845 7.628 27.7965 8.264 27.7965 9.104C27.7965 9.608 27.9285 10.22 28.1925 10.94L23.4405 11.876C23.2965 11.324 23.2245 10.796 23.2245 10.292C23.2245 9.212 23.5485 8.252 24.1965 7.412C24.8445 6.548 25.8045 5.876 27.0765 5.396C28.3725 4.892 29.9205 4.64 31.7205 4.64C33.7125 4.64 35.2965 4.94 36.4725 5.54C37.6725 6.116 38.5485 7.052 39.1005 8.348C39.6525 9.62 39.9285 11.336 39.9285 13.496V18.536ZM34.9605 15.656V13.676C32.6805 13.916 30.8205 14.456 29.3805 15.296C27.9405 16.136 27.2205 17.252 27.2205 18.644C27.2205 19.604 27.4245 20.324 27.8325 20.804C28.2645 21.26 28.9125 21.488 29.7765 21.488C30.7605 21.488 31.6485 21.212 32.4405 20.66C33.2325 20.108 33.8445 19.412 34.2765 18.572C34.7325 17.732 34.9605 16.904 34.9605 16.088V15.656ZM56.9644 4.64C59.8444 4.64 61.2844 6.092 61.2844 8.996C61.2844 10.076 61.0804 11.396 60.6724 12.956L55.7044 12.236C56.4484 10.58 56.8204 9.248 56.8204 8.24C56.8204 7.088 56.2804 6.512 55.2004 6.512C54.1924 6.512 53.2684 7.004 52.4284 7.988C51.5884 8.948 50.9164 10.196 50.4124 11.732C49.9324 13.268 49.6924 14.864 49.6924 16.52V18.68C49.6924 19.832 49.8244 20.648 50.0884 21.128C50.3764 21.608 50.8444 21.848 51.4924 21.848V23H42.9244V21.848C43.5724 21.848 44.0284 21.608 44.2924 21.128C44.5804 20.648 44.7244 19.832 44.7244 18.68V9.32C44.7244 8.168 44.5804 7.352 44.2924 6.872C44.0284 6.392 43.5724 6.152 42.9244 6.152V5H45.3004C46.3804 5 47.2204 5.06 47.8204 5.18C48.4204 5.3 48.8764 5.576 49.1884 6.008C49.5244 6.44 49.6924 7.1 49.6924 7.988V10.184H50.0524C50.4844 8.768 51.2884 7.496 52.4644 6.368C53.6644 5.216 55.1644 4.64 56.9644 4.64ZM80.3933 16.232C80.4173 16.376 80.4293 16.592 80.4293 16.88C80.4293 18.08 80.1173 19.172 79.4933 20.156C78.8693 21.14 77.9573 21.92 76.7573 22.496C75.5813 23.072 74.1653 23.36 72.5093 23.36C69.1733 23.36 66.7013 22.556 65.0933 20.948C63.5093 19.316 62.7173 17.156 62.7173 14.468C62.7173 12.452 63.1373 10.712 63.9773 9.248C64.8413 7.76 66.0293 6.62 67.5413 5.828C69.0773 5.036 70.8533 4.64 72.8693 4.64C75.1493 4.64 76.9853 5.108 78.3773 6.044C79.7933 6.98 80.5013 8.276 80.5013 9.932C80.5013 11.78 79.6853 13.148 78.0533 14.036C76.4213 14.924 74.4413 15.368 72.1133 15.368C70.6013 15.368 69.1253 15.188 67.6853 14.828C67.7093 16.772 68.1173 18.368 68.9093 19.616C69.7013 20.864 70.8533 21.488 72.3653 21.488C73.3973 21.488 74.1773 21.26 74.7053 20.804C75.2573 20.324 75.5333 19.52 75.5333 18.392C75.5333 18.032 75.4973 17.624 75.4253 17.168L80.3933 16.232ZM72.4013 6.512C70.9373 6.512 69.8333 7.064 69.0893 8.168C68.3453 9.248 67.9013 10.82 67.7573 12.884C69.0053 13.196 70.1453 13.352 71.1773 13.352C72.5933 13.352 73.6733 13.052 74.4173 12.452C75.1613 11.828 75.5333 10.952 75.5333 9.824C75.5333 8.744 75.2693 7.928 74.7413 7.376C74.2133 6.8 73.4333 6.512 72.4013 6.512Z" fill="white"></path>
    <path d="M21.44 37C21.44 35.296 21.776 33.736 22.448 32.32C23.144 30.904 24.224 29.776 25.688 28.936C27.176 28.072 29.06 27.64 31.34 27.64C33.308 27.64 34.964 27.988 36.308 28.684C37.652 29.356 38.648 30.292 39.296 31.492C39.944 32.668 40.232 34.024 40.16 35.56L35.192 34.84C35.216 34.6 35.228 34.276 35.228 33.868C35.228 32.452 34.88 31.372 34.184 30.628C33.512 29.884 32.552 29.512 31.304 29.512C29.552 29.512 28.292 30.148 27.524 31.42C26.78 32.692 26.408 34.552 26.408 37C26.408 39.448 26.78 41.308 27.524 42.58C28.292 43.852 29.552 44.488 31.304 44.488C32.624 44.488 33.668 44.092 34.436 43.3C35.204 42.484 35.588 41.296 35.588 39.736C35.588 39.328 35.576 39.016 35.552 38.8L40.52 38.08C40.592 39.712 40.268 41.152 39.548 42.4C38.852 43.648 37.796 44.62 36.38 45.316C34.964 46.012 33.272 46.36 31.304 46.36C29.024 46.36 27.14 45.94 25.652 45.1C24.188 44.236 23.12 43.108 22.448 41.716C21.776 40.3 21.44 38.728 21.44 37ZM59.9285 41.536C59.9285 42.856 60.2285 43.516 60.8285 43.516C61.0685 43.516 61.3685 43.408 61.7285 43.192V44.56C61.4405 45.016 60.9845 45.376 60.3605 45.64C59.7605 45.88 59.1005 46 58.3805 46C57.5165 46 56.7485 45.832 56.0765 45.496C55.4285 45.136 55.0565 44.5 54.9605 43.588V43.336H54.6005C54.0245 44.224 53.1725 44.956 52.0445 45.532C50.9165 46.084 49.5845 46.36 48.0485 46.36C44.1845 46.36 42.2525 44.86 42.2525 41.86C42.2525 39.556 43.4645 37.912 45.8885 36.928C48.3125 35.944 51.3245 35.248 54.9245 34.84C54.8765 33.52 54.7445 32.488 54.5285 31.744C54.3125 31 53.9405 30.448 53.4125 30.088C52.8845 29.704 52.1525 29.512 51.2165 29.512C50.1125 29.512 49.2605 29.74 48.6605 30.196C48.0845 30.628 47.7965 31.264 47.7965 32.104C47.7965 32.608 47.9285 33.22 48.1925 33.94L43.4405 34.876C43.2965 34.324 43.2245 33.796 43.2245 33.292C43.2245 32.212 43.5485 31.252 44.1965 30.412C44.8445 29.548 45.8045 28.876 47.0765 28.396C48.3725 27.892 49.9205 27.64 51.7205 27.64C53.7125 27.64 55.2965 27.94 56.4725 28.54C57.6725 29.116 58.5485 30.052 59.1005 31.348C59.6525 32.62 59.9285 34.336 59.9285 36.496V41.536ZM54.9605 38.656V36.676C52.6805 36.916 50.8205 37.456 49.3805 38.296C47.9405 39.136 47.2205 40.252 47.2205 41.644C47.2205 42.604 47.4245 43.324 47.8325 43.804C48.2645 44.26 48.9125 44.488 49.7765 44.488C50.7605 44.488 51.6485 44.212 52.4405 43.66C53.2325 43.108 53.8445 42.412 54.2765 41.572C54.7325 40.732 54.9605 39.904 54.9605 39.088V38.656ZM76.9644 27.64C79.8444 27.64 81.2844 29.092 81.2844 31.996C81.2844 33.076 81.0804 34.396 80.6724 35.956L75.7044 35.236C76.4484 33.58 76.8204 32.248 76.8204 31.24C76.8204 30.088 76.2804 29.512 75.2004 29.512C74.1924 29.512 73.2684 30.004 72.4284 30.988C71.5884 31.948 70.9164 33.196 70.4124 34.732C69.9324 36.268 69.6924 37.864 69.6924 39.52V41.68C69.6924 42.832 69.8244 43.648 70.0884 44.128C70.3764 44.608 70.8444 44.848 71.4924 44.848V46H62.9244V44.848C63.5724 44.848 64.0284 44.608 64.2924 44.128C64.5804 43.648 64.7244 42.832 64.7244 41.68V32.32C64.7244 31.168 64.5804 30.352 64.2924 29.872C64.0284 29.392 63.5724 29.152 62.9244 29.152V28H65.3004C66.3804 28 67.2204 28.06 67.8204 28.18C68.4204 28.3 68.8764 28.576 69.1884 29.008C69.5244 29.44 69.6924 30.1 69.6924 30.988V33.184H70.0524C70.4844 31.768 71.2884 30.496 72.4644 29.368C73.6644 28.216 75.1644 27.64 76.9644 27.64ZM100.393 39.232C100.417 39.376 100.429 39.592 100.429 39.88C100.429 41.08 100.117 42.172 99.4933 43.156C98.8693 44.14 97.9573 44.92 96.7573 45.496C95.5813 46.072 94.1653 46.36 92.5093 46.36C89.1733 46.36 86.7013 45.556 85.0933 43.948C83.5093 42.316 82.7173 40.156 82.7173 37.468C82.7173 35.452 83.1373 33.712 83.9773 32.248C84.8413 30.76 86.0293 29.62 87.5413 28.828C89.0773 28.036 90.8533 27.64 92.8693 27.64C95.1493 27.64 96.9853 28.108 98.3773 29.044C99.7933 29.98 100.501 31.276 100.501 32.932C100.501 34.78 99.6853 36.148 98.0533 37.036C96.4213 37.924 94.4413 38.368 92.1133 38.368C90.6013 38.368 89.1253 38.188 87.6853 37.828C87.7093 39.772 88.1173 41.368 88.9093 42.616C89.7013 43.864 90.8533 44.488 92.3653 44.488C93.3973 44.488 94.1773 44.26 94.7053 43.804C95.2573 43.324 95.5333 42.52 95.5333 41.392C95.5333 41.032 95.4973 40.624 95.4253 40.168L100.393 39.232ZM92.4013 29.512C90.9373 29.512 89.8333 30.064 89.0893 31.168C88.3453 32.248 87.9013 33.82 87.7573 35.884C89.0053 36.196 90.1453 36.352 91.1773 36.352C92.5933 36.352 93.6733 36.052 94.4173 35.452C95.1613 34.828 95.5333 33.952 95.5333 32.824C95.5333 31.744 95.2693 30.928 94.7413 30.376C94.2133 29.8 93.4333 29.512 92.4013 29.512Z" fill="white"></path>
    <path d="M98 9.11111C98 5.73604 100.736 3 104.111 3V3C107.486 3 110.222 5.73604 110.222 9.11111V23L98 23V9.11111Z" fill="white"></path>
    <path d="M111.889 10.7778C115.264 10.7778 118 13.5139 118 16.8889V16.8889C118 20.264 115.264 23.0001 111.889 23.0001L98 23.0001L98 10.7778L111.889 10.7778Z" fill="white"></path>
</svg>